<svg xmlns="http://www.w3.org/2000/svg" viewBox="0 0 60 60">
  <defs>
    <filter id="o" x="-25%" y="-25%" width="150%" height="150%">
      <feMorphology in="SourceAlpha" operator="dilate" radius="2.5" result="e"/>
      <feFlood flood-color="white" result="w"/>
      <feComposite in="w" in2="e" operator="in" result="ol"/>
      <feMerge><feMergeNode in="ol"/><feMergeNode in="SourceGraphic"/></feMerge>
    </filter>
  </defs>
  <g filter="url(#o)">
    <!-- 줄기들 -->
    <path d="M22,44 Q20,36 22,26" fill="none" stroke="#7ab870" stroke-width="2.2" stroke-linecap="round"/>
    <path d="M30,46 Q30,38 30,28" fill="none" stroke="#7ab870" stroke-width="2.2" stroke-linecap="round"/>
    <path d="M38,44 Q40,36 38,26" fill="none" stroke="#7ab870" stroke-width="2.2" stroke-linecap="round"/>
    <!-- 잎 -->
    <path d="M22,38 Q15,33 16,27 Q20,33 22,38Z" fill="#8dba80"/>
    <path d="M38,38 Q45,33 44,27 Q40,33 38,38Z" fill="#8dba80"/>
    <!-- 튤립 꽃 왼쪽 -->
    <path d="M22,26 C19,22 16,18 17,13 C18,10 20,9 22,11 C24,13 23,18 22,22 Z" fill="#f5a0c0"/>
    <path d="M22,26 C22,22 22,18 22,13 C23,10 25,10 26,13 C27,18 24,22 22,26 Z" fill="#f0b8d0"/>
    <!-- 튤립 꽃 중앙 -->
    <path d="M30,28 C27,24 24,18 25,13 C26,10 28,9 30,11 C32,9 34,10 35,13 C36,18 33,24 30,28 Z" fill="#f08098"/>
    <path d="M30,28 C29,24 28.5,18 29,13 C29.5,10 30.5,10 31,13 C31.5,18 31,24 30,28 Z" fill="#f5a8b8"/>
    <!-- 튤립 꽃 오른쪽 -->
    <path d="M38,26 C38,22 38,18 38,13 C39,10 41,10 42,13 C43,18 40,22 38,26 Z" fill="#f0b8d0"/>
    <path d="M38,26 C35,22 34,18 35,13 C36,10 38,9 38,11 C38,18 38,22 38,26 Z" fill="#f5a0c0"/>
    <!-- 꽃받침 -->
    <path d="M20,26 Q22,28 22,30 Q22,28 24,28 Q22,28 22,26Z" fill="#7ab870"/>
    <path d="M28,28 Q30,30 30,32 Q30,30 32,30 Q30,30 30,28Z" fill="#7ab870"/>
    <path d="M36,26 Q38,28 38,30 Q38,28 40,28 Q38,28 38,26Z" fill="#7ab870"/>
    <!-- 하단 묶음 -->
    <ellipse cx="30" cy="48" rx="10" ry="5" fill="#e8c0a0"/>
    <path d="M25,48 C25,44 28,43 30,44 C32,43 35,44 35,48" fill="none" stroke="#c89878" stroke-width="1.5" stroke-linecap="round"/>
  </g>
</svg>
